<svg xmlns="http://www.w3.org/2000/svg" viewBox="0 0 100 100" width="100" height="100" role="img" aria-label="Agelo app icon">
  <defs>
    <linearGradient id="ageloGradIcon" x1="0" y1="0" x2="0" y2="1">
      <stop offset="0" stop-color="#4F46E5"></stop>
      <stop offset="1" stop-color="#06B6D4"></stop>
    </linearGradient>
  </defs>
  <rect x="0" y="0" width="100" height="100" rx="23" fill="#11132A"></rect>
  <g transform="translate(20 20) scale(0.6)">
    <path fill="url(#ageloGradIcon)" fill-rule="evenodd" d="M50 12 L88 88 L69 88 L62 70 L38 70 L31 88 L12 88 Z M43.5 47 h13 a3 3 0 0 1 3 3 v12 a3 3 0 0 1 -3 3 h-13 a3 3 0 0 1 -3 -3 v-12 a3 3 0 0 1 3 -3 z"></path>
  </g>
</svg>